<svg width="69" height="69" fill="none" xmlns="http://www.w3.org/2000/svg"><circle cx="34.488" cy="34.488" r="34.488" fill="#707DEC"/><path d="M51.439 38.183l-.034-.463c-.542-7.06-3.83-11.486-6.73-15.39-2.685-3.614-5.004-6.736-5.004-11.342a.988.988 0 00-1.56-.802c-4.356 3.117-7.99 8.37-9.26 13.382-.88 3.49-.997 7.412-1.014 10.003-4.022-.859-4.933-6.876-4.943-6.941a.991.991 0 00-.513-.732.982.982 0 00-.894-.017c-.21.103-5.177 2.626-5.466 12.703-.02.335-.021.67-.021 1.006 0 9.789 7.964 17.753 17.753 17.753S51.506 49.38 51.506 39.59c0-.491-.034-.95-.067-1.407zM33.753 55.371c-3.263 0-5.918-2.828-5.918-6.304 0-.119 0-.238.008-.384.04-1.466.318-2.467.623-3.133.572 1.23 1.596 2.36 3.257 2.36a.986.986 0 00.986-.987c0-1.404.029-3.025.379-4.487.31-1.297 1.054-2.675 1.996-3.781.42 1.435 1.236 2.597 2.034 3.73 1.14 1.622 2.32 3.3 2.528 6.159.012.17.025.34.025.523 0 3.476-2.655 6.304-5.918 6.304zm6.233-1.289a8.452 8.452 0 001.657-5.015c0-.232-.014-.448-.043-.852-.234-3.22-1.633-5.21-2.87-6.965-1.052-1.495-1.96-2.786-1.96-4.618a.986.986 0 00-1.58-.787c-1.892 1.429-3.47 3.835-4.021 6.132-.281 1.178-.38 2.452-.414 3.5-.684-.736-.896-2.1-.898-2.118a.988.988 0 00-1.427-.744c-.249.127-2.432 1.379-2.557 5.985a8.452 8.452 0 001.648 5.482c-5.61-2.422-9.548-8.004-9.548-14.492 0-.295-.001-.59.019-.919.17-5.911 2.061-8.843 3.296-10.137.861 3.082 3.117 7.111 7.534 7.111a.986.986 0 00.986-.986c0-3.3.074-7.115.957-10.607 1.001-3.957 3.745-8.23 7.058-11.122.55 4.224 2.85 7.322 5.27 10.576 2.874 3.87 5.847 7.872 6.345 14.353l.033.471c.031.41.063.82.063 1.26 0 6.488-3.938 12.07-9.548 14.492z" fill="#DDE1FF"/></svg>