<svg width="103" height="103" fill="none" xmlns="http://www.w3.org/2000/svg"><path d="M44.659 20.727c2.177-6.595 11.505-6.595 13.682 0 1.38 4.18 6.151 6.156 10.082 4.176 6.202-3.124 12.798 3.472 9.674 9.674-1.98 3.931-.003 8.703 4.176 10.082 6.595 2.177 6.595 11.505 0 13.682-4.18 1.38-6.156 6.151-4.176 10.082 3.124 6.202-3.472 12.798-9.674 9.674-3.931-1.98-8.703-.003-10.082 4.176-2.177 6.595-11.505 6.595-13.682 0-1.38-4.18-6.151-6.156-10.082-4.176-6.202 3.124-12.798-3.472-9.674-9.674 1.98-3.931.003-8.703-4.176-10.082-6.595-2.177-6.595-11.505 0-13.682 4.18-1.38 6.156-6.151 4.176-10.082-3.124-6.202 3.472-12.798 9.674-9.674 3.931 1.98 8.703.003 10.082-4.176z" fill="#F143C4"/><path d="M49.555 51.886c-28.996 28-28.482-27.5 0 0zm0 0c29.003 28 27.503-27.5 0 0z" stroke="#FFC0EF" stroke-width="2"/></svg>