<svg width="361" height="256" fill="none" xmlns="http://www.w3.org/2000/svg"><path d="M2 67.102c2.417-18.162 11.116-29.58 25.602-41.16 8.907-7.12 18.929-12.789 29.394-17.255 4.721-2.015 16.805-8.694 22.283-6.095C86.06 5.81 87.86 22.581 88.445 28.95c1.664 18.128-6.385 34.569-12.406 51.054-15.695 42.974-45.943 80.795-48.28 127.594-.641 12.861-4.967 50.768 17.7 45.988 15.765-3.325 32.485-17.235 45.672-26.042 25.176-16.812 52.14-30.346 77.279-47.254 17.677-11.889 51.449-25.969 72.538-18.047 2.596.976.862 4.818 2.292 6.887 4.843 7.007 8.833 15.137 12.721 22.717 4.893 9.537 7.434 11.918 17.858 15.593 26.902 9.481 57.35 5.916 85.181 4.986" stroke="#F5F059" stroke-width="3" stroke-linecap="round"/></svg>