<svg width="82" height="86" fill="none" xmlns="http://www.w3.org/2000/svg"><path d="M29.118 55.965l2.823-1.015v.001l.002.003.004.012.017.046.066.183.252.702.922 2.558c.774 2.15 1.835 5.09 2.98 8.26 1.667 4.614 3.51 9.701 4.91 13.533 1.373-3.813 3.163-8.884 4.782-13.494a4821.62 4821.62 0 003.788-10.827l.244-.702.064-.183.016-.047.004-.011.001-.003v-.001l2.834.986-2.833-.986.441-1.269 1.24-.516 24.316-10.111c-3.749-1.455-8.715-3.445-13.16-5.242a2605.515 2605.515 0 01-10.247-4.169l-.663-.271-.173-.071-.045-.019-.011-.004-.003-.001h0l1.138-2.776M29.118 55.965l2.823-1.015-.444-1.236-1.21-.512-1.169 2.764zm0 0l1.168-2.763h0l-.004-.002-.011-.005-.046-.019-.178-.075-.681-.287a2114.833 2114.833 0 00-10.492-4.388c-4.467-1.854-9.443-3.897-13.198-5.38 3.614-1.358 8.284-3.133 12.478-4.732a6835.988 6835.988 0 009.84-3.761l.634-.243.166-.064.042-.016.011-.004.003-.001h0l-1.074-2.802m0 0l1.075 2.801 1.226-.47.486-1.22-2.787-1.11zm0 0l2.787 1.11h0l.002-.003.005-.013.02-.05.078-.196.298-.749a4752.553 4752.553 0 004.556-11.492 1914.45 1914.45 0 005.6-14.321 1440.33 1440.33 0 014.763 13.733 3469.75 3469.75 0 013.771 11.078l.244.72.063.187.016.048.005.012v.003h0l2.843-.96m0 0l-2.842.961.438 1.296 1.265.52 1.139-2.776z" stroke="#F5F059" stroke-width="6"/></svg>