<svg width="625" height="38" fill="none" xmlns="http://www.w3.org/2000/svg"><path d="M2 25.304c26.318-18.493 64.79-13.838 91.67.691 31.832 17.207 64.195 10.941 96.33-2.59 8.078-3.4 22.408-11.301 31.42-8.631 10.309 3.054 20.587 7.202 30.729 10.185 13.785 4.055 25.35 4.344 39.188-1.553 7.684-3.276 13.993-7.07 21.752-9.323 7.557-2.194 18.601-6.565 26.068-2.417 10.573 5.874 28.126 14.58 39.894 17.438 15.447 3.751 34.701 5.303 49.202-2.59 8.082-4.399 16.033-8.394 23.046-14.329 3.652-3.089 10.071-6.408 14.761-7.078 19.827-2.832 42.372 12.976 60.94 19.854 13.064 4.838 19.401 4.8 34.009 1.553 18.234-4.052 32.476-6.968 48.597-16.573 3.325-1.98 11.653-4.489 13.379-7.941" stroke="#F5F059" stroke-width="3" stroke-linecap="round"/></svg>