<svg width="119" height="143" fill="none" xmlns="http://www.w3.org/2000/svg"><path d="M42.552 29.867s-9.773-7.834-11.034-7.834c-1.26 0-7.881 5.223-11.034 7.834l1.577 10.184c4.071 7.615 9.515 11.815 18.127 12.534 0 0 6.251 1.486 7.093 4.7.905 3.458-4.73 7.834-4.73 7.834l-13.397 2.35-5.517 8.618 3.152 10.967 9.458 4.7c3.152-2.088 10.088-6.58 12.61-7.833 2.522-1.254 6.83-2.09 8.67-2.35 1.838-.262-2.365 7.05-2.365 7.05l-9.458 16.451-1.576 11.751c2.364 1.567 7.881 5.484 7.881 5.484s7.619-3.917 11.034-6.267c0 0 4.17-9.849 3.94-16.452-.264-7.62 1.26-26.166 14.975-12.534l7.093 15.668 11.822 2.35s7.868-1.618 10.245-5.484c2.903-4.72-1.576-14.1-1.576-14.1-4.203-3.134-13.083-9.401-14.974-9.401-1.892 0-4.466-5.223-5.517-7.834-1.05-2.611 5.517-7.834 5.517-7.834 3.678-.261 11.822-.627 14.974 0 3.153.627 7.619-4.961 9.458-7.834l-2.365-13.317s-7.64-4.157-12.61-3.134c-5.544 1.141-11.033 9.4-11.033 9.4s-5.393 2.615-8.67 1.568c-11.184-3.576.916-14.96 0-22.719-.627-5.311-5.517-12.534-5.517-12.534-3.415-1.044-11.033-2.977-14.186-2.35-3.152.627-7.618 6.528-9.457 9.4 0 0 1.082 5.372 2.364 8.618 8.107 20.524-3.097 21.668-14.974 2.35z" fill="#F5F059"/><path d="M82.58 129.136l-3.139-22.779 14.126 17.28-5.493 8.641-5.493-3.142zM7.1 50.93l14.785 4.903L7.1 64.003l-6.225-8.17L7.1 50.93z" fill="#F5F059"/><path d="M41.441 92.633l5.147 10.293s5.33.825 8.577 0c3.786-.963 8.577-5.146 8.577-5.146 1.43-2.86 6.862-10.293 6.862-10.293s15.153-24.588 21.443-36.024l20.585-38.597V2.573L109.201 0l-11.15 6.004-12.008 16.297L56.88 60.898s-8.61 11.92-12.008 20.585c-1.663 4.241-3.43 11.15-3.43 11.15zm-18.014 16.295l16.296-1.715 1.716 1.715s6.165 8.425 6.004 14.581C47.15 134.66 26 142.379 26 142.379L3.7 138.09s7.4-1.033 10.292-4.288c3.808-4.287-.507-9.296 1.715-14.581 1.948-4.632 7.72-10.293 7.72-10.293z" fill="#707DEC"/></svg>