<svg width="109" height="169" fill="none" xmlns="http://www.w3.org/2000/svg"><path d="M85.387 78.112c-15.318-13.079-54.402-26.037-72.03-30.881l-10.94-9.083c-1.824-5.752-4.377-18.166 0-21.799C7.886 11.808 16.092 0 24.298 0s24.617 2.725 29.176 6.358c3.647 2.907 16.108 14.533 21.882 19.983.608-.303 2.553-1.091 5.47-1.818 3.648-.908 6.383 2.725 8.207 3.633 1.459.727-3.04 5.147-5.47 7.267.607.908 3.829 5.086 11.852 14.532 8.023 9.447 11.853 26.947 12.765 34.516l-3.647 6.358c0 1.21-3.83.363-19.147-12.716z" fill="#707DEC"/><path d="M41.181 112.641l-20.97-10.835-7.293 6.32 7.294 6.321 19.146 4.514 4.559 2.709-15.5 13.544-5.47 18.058 5.47 15.35 16.411-18.058c1.52-5.117 4.559-16.072 4.559-18.962 0-2.889 3.039-1.204 4.558 0l1.824 12.641c.912 2.408 2.917 7.585 3.647 9.029.73 1.445 10.029 6.02 14.587 8.127 0-7.224-.364-22.573-1.823-26.185-1.459-3.612-11.549-11.136-16.411-14.447l16.41-1.806c4.56-1.204 14.041-4.514 15.5-8.126 1.459-3.612-2.431-8.728-4.558-10.835l-20.058 10.835-21.882 1.806z" fill="#F5F059"/></svg>