<svg width="145" height="146" fill="none" xmlns="http://www.w3.org/2000/svg"><path d="M17.787 50.393c7.062-26.72 27.765-51.677 61.438-35.522 18.134 8.7 46.277 39.128 46.277 39.128s9.764 21.385 0 45.999c-9.763 24.613-79 12.499-79 12.499l-28.715-33.5s-3.46-15.512 0-28.604z" fill="#F143C4"/><path d="M130.5 56.55c0 23.174-18.452 41.954-41.799 41.954-23.398 0-44.201-17.875-44.201-41s20.844-41 44.243-41c23.377 0 41.757 16.9 41.757 40.046z" stroke="#000"/><path d="M34.5 35.504h73.757l.024.548.124 2.832c.104 2.408.248 5.774.407 9.603.318 7.66.695 17.176.933 24.604.227 7.069.416 16.108.548 23.381.066 3.636.118 6.831.153 9.116l.04 2.688.007.471-75.993.752V35.504z" stroke="#000"/><path d="M21.438 58.958L41.12 20.004l27.629 38.19L96 96.005s-30.275-1.146-48.825-1.146C28.625 94.858 1 96.004 1 96.004l20.438-37.046z" stroke="#000"/><path d="M44 57.043s11.453-5.535 18.825 1.615c7.373 7.15 11.125 15.666 11.853 16.493l.318-.347 6.159 7.008-.312.353s10.145 9.298 14.724 14.508c4.577 5.211 40.416 48.154 39.412 49.293l-.013.019c-.769.871-40.376-37.966-44.955-43.175-4.579-5.21-12.869-16.435-12.869-16.435l-.31.355-6.159-7.007.303-.36c-.727-.828-8.39 2.6-14.494-13.486C52.392 55.09 44 57.043 44 57.043zM66.302 7.138a.21.21 0 01.395 0c.361.974.975 2.737 1.698 3.467.716.723 2.502 1.34 3.468 1.697a.21.21 0 010 .396c-.955.353-2.769.974-3.468 1.697-.722.747-1.333 2.483-1.697 3.468a.21.21 0 01-.395 0c-.367-.99-.976-2.713-1.698-3.468-.692-.722-2.518-1.346-3.468-1.697a.21.21 0 010-.396c.961-.355 2.759-.974 3.468-1.697.722-.737 1.335-2.49 1.697-3.468zm15.447 48.037a.268.268 0 01.502 0c.46 1.24 1.241 3.484 2.161 4.413.91.92 3.185 1.706 4.413 2.16a.268.268 0 010 .503c-1.215.45-3.523 1.241-4.413 2.161-.92.951-1.697 3.16-2.16 4.413a.268.268 0 01-.503 0c-.466-1.26-1.242-3.452-2.161-4.413-.88-.92-3.204-1.713-4.413-2.16a.268.268 0 010-.503c1.223-.453 3.51-1.241 4.413-2.161.92-.938 1.7-3.168 2.16-4.413zM5.303 32.138a.21.21 0 01.394 0c.361.974.975 2.737 1.698 3.467.716.723 2.502 1.34 3.468 1.698a.21.21 0 010 .395c-.955.353-2.769.974-3.468 1.697-.722.747-1.333 2.483-1.698 3.467a.21.21 0 01-.394 0c-.367-.99-.976-2.712-1.698-3.467-.692-.722-2.518-1.346-3.467-1.698a.21.21 0 010-.395c.96-.355 2.758-.974 3.467-1.697.722-.737 1.335-2.49 1.698-3.467z" fill="#000"/></svg>