<svg width="449" height="355" fill="none" xmlns="http://www.w3.org/2000/svg"><path d="M331.55 16.691c-34.639-10.867-77.313-3.972-112.157 1.765-30.531 5.026-58.747 13.732-87.961 23.691-14.963 5.101-22.275 11.781-34.78 19.785C37.755 99.625 13.774 181.148 4.66 244.955c-4.52 31.636-1.014 67.231 25.708 89.095 31.204 25.53 118.208 18.411 151.474 5.671 50.776-19.446 115.295-52.78 161.175-81.704 51.688-32.586 102.686-98.196 102.686-161.304 0-28.984-1.565-48.617-27.703-66.713-63.57-44.01-168-29-228.5 12.148" stroke="#F5F059" stroke-width="6" stroke-linecap="round"/></svg>