<svg width="132" height="124" fill="none" xmlns="http://www.w3.org/2000/svg"><path d="M18.507 75.771l13.928 14.592s9.726 21.548 20.819 18.364c11.246-3.228 17.55-8.321 22.297-18.285 2.833-5.947 5.545-8.254 9.431-13.296 4.903-6.361 9.423-8.441 13.356-15.639 6.858-16.111 3.411-25.336 1.978-29.17l-.043-.116c-1.404-3.762-23.795-20.092-23.795-20.092s-30.392-6.12-46.257 2.578C14.38 23.393 5.563 37.843 3.185 52.25.807 66.654 18.507 75.77 18.507 75.77z" fill="#F5F059"/><path d="M24.45 45.08L47.032 1l31.701 43.216L110 87s-34.736-1.296-56.02-1.296C32.697 85.704 1 87 1 87l23.45-41.92z" stroke="#000"/><path d="M54 45.797s9.817-4.867 16.135 1.419c6.32 6.285 9.537 13.772 10.16 14.5l.273-.305 5.279 6.16-.267.31s8.696 8.174 12.62 12.755c3.924 4.58 34.643 42.333 33.782 43.335l-.011.016c-.66.766-34.608-33.377-38.533-37.956-3.925-4.58-11.03-14.449-11.03-14.449l-.266.313-5.28-6.16.26-.317C76.5 64.69 69.93 67.703 64.7 53.562 61.193 44.08 54 45.797 54 45.797zm-39.697-26.66a.21.21 0 01.394 0c.361.975.975 2.738 1.698 3.468.716.723 2.503 1.34 3.468 1.697a.21.21 0 010 .396c-.955.353-2.769.974-3.468 1.697-.722.747-1.333 2.483-1.697 3.468a.21.21 0 01-.396 0c-.366-.99-.975-2.713-1.697-3.468-.692-.722-2.518-1.346-3.468-1.697a.21.21 0 010-.396c.961-.355 2.759-.974 3.468-1.697.722-.737 1.335-2.49 1.697-3.468z" fill="#000"/></svg>