<svg width="130" height="122" fill="none" xmlns="http://www.w3.org/2000/svg"><path d="M36 31.002S33.29 37.5 29.499 39.5C19.852 44.59 6.54 52.551 8.184 63.625c2.29 15.445 46.964 37.377 46.964 37.377s22.706-.105 31.352-2.5c6.154-1.705 15.18-10.307 17.691-26.515 2.511-16.209-7.193-46.44-7.193-46.44S69.308 7.665 55.148 7.46C33.315 7.144 36 31.002 36 31.002z" fill="#707DEC"/><path d="M28.043 21.414h69.882l.022.495.117 2.686c.099 2.283.236 5.474.386 9.105.302 7.263.66 16.285.885 23.327.215 6.702.394 15.273.519 22.169.063 3.448.112 6.476.145 8.643l.039 2.548.006.421-72.001.712V21.415z" stroke="#000"/><path d="M26.062 37.935L44.723 1 70.92 37.21l25.838 35.85s-28.705-1.087-46.293-1.087S6.684 73.06 6.684 73.06l19.378-35.125z" stroke="#000"/><path d="M38.996 33.044s11.453-5.536 18.825 1.614c7.373 7.15 11.126 15.666 11.853 16.493l.318-.346 6.159 7.008-.312.352s10.145 9.298 14.724 14.509c4.577 5.21 40.416 48.153 39.412 49.292l-.013.02c-.769.87-40.376-37.967-44.955-43.176-4.579-5.21-12.869-16.435-12.869-16.435l-.31.355-6.159-7.007.304-.36c-.727-.827-8.392 2.6-14.495-13.486-4.09-10.786-12.482-8.833-12.482-8.833zM9.299 29.137a.21.21 0 01.395 0c.36.975.974 2.738 1.697 3.468.716.723 2.503 1.34 3.468 1.698a.21.21 0 010 .395c-.955.353-2.769.974-3.468 1.697-.722.747-1.333 2.483-1.697 3.467a.21.21 0 01-.395 0c-.367-.99-.976-2.712-1.698-3.467-.692-.722-2.518-1.346-3.467-1.698a.21.21 0 010-.395c.96-.355 2.758-.974 3.467-1.697.722-.737 1.336-2.49 1.698-3.467zm30 28.001a.21.21 0 01.395 0c.36.974.974 2.737 1.697 3.467.716.723 2.503 1.34 3.468 1.698a.21.21 0 010 .395c-.955.353-2.769.974-3.468 1.697-.722.747-1.333 2.483-1.697 3.468a.21.21 0 01-.395 0c-.367-.99-.976-2.713-1.698-3.468-.691-.722-2.518-1.346-3.467-1.697a.21.21 0 010-.395c.96-.356 2.758-.975 3.467-1.698.723-.737 1.336-2.49 1.698-3.467z" fill="#000"/></svg>