<svg width="694" height="84" fill="none" xmlns="http://www.w3.org/2000/svg"><path d="M642.491 44.338C593.4 28.603 543.506 20.395 492.487 13.377c-46.038-6.333-91.849-7.067-138.249-8.113-66.713-1.503-133.579-2.419-200.254.248-23.899.956-47.667 1.527-71.443 4.554-20.415 2.598-45.886 1.007-64.074 11.92C9.94 27.102 3.234 37.266 3.234 47.318c0 17.89 33.04 22.457 44.29 25.25 53.347 13.239 107.971 7.552 162.256 3.725 60.176-4.244 121.187-9.603 181.545-9.603 50.752 0 100.308-1.244 150.005-13.825 31.525-7.981 62.965-15.697 94.29-24.008 18.293-4.853 39.172-10.234 54.555-21.772" stroke="#F5F059" stroke-width="6" stroke-linecap="round"/></svg>