<svg width="26" height="26" fill="none" xmlns="http://www.w3.org/2000/svg"><path d="M21.575 14.115c-.42-.53-.3-.767 0-1.242.005-.005 3.475-4.8 3.832-6.426l.003-.001c.177-.593 0-1.028-.86-1.028h-2.842c-.724 0-1.057.374-1.236.792 0 0-1.448 3.464-3.495 5.71-.66.65-.966.857-1.327.857-.178 0-.454-.208-.454-.8V6.446c0-.71-.203-1.028-.802-1.028h-4.47c-.454 0-.723.331-.723.64 0 .674 1.024.829 1.13 2.725v4.113c0 .902-.164 1.067-.527 1.067-.966 0-3.312-3.478-4.702-7.46-.28-.772-.554-1.084-1.283-1.084H.975c-.811 0-.975.374-.975.792 0 .739.966 4.412 4.494 9.266 2.35 3.313 5.661 5.108 8.673 5.108 1.81 0 2.031-.399 2.031-1.085 0-3.165-.164-3.464.743-3.464.42 0 1.144.208 2.834 1.806 1.932 1.894 2.25 2.743 3.33 2.743h2.843c.81 0 1.221-.399.985-1.186-.54-1.654-4.194-5.057-4.358-5.284z" fill="#fff"/></svg>