<svg width="298" height="17" fill="none" xmlns="http://www.w3.org/2000/svg"><path d="M2 2c5.202 5.998 12.936 6.428 19.89 8.733 4.43 1.468 10.087 2.645 14.71 1.38 3.928-1.077 7.79-2.556 11.746-3.678C56.032 6.255 58.613 2.74 66.53 2.35c7.665-.378 13.875 2.335 20.834 6.085 2.913 1.57 10.69 3.924 13.844 4.954 11.514 3.762 20.906-5.312 31.702-8.126 9.897-2.58 8.402-2.112 18.405 1.123 6.335 2.049 14.502 7.011 21.124 8.127 7.83 1.318 13.294-5.039 20.545-7.578 10.147-3.554 15.268-7.776 26.188-2.127C223.231 6.908 241.309 15 251.003 15c7.379 0 19.822-9.189 19.822-9.189C278.99 4.02 287.762 5.23 296 6.935" stroke="#F5F059" stroke-width="3" stroke-linecap="round"/></svg>