<svg width="20" height="20" fill="none" xmlns="http://www.w3.org/2000/svg"><path d="M15.833 0H4.167A4.171 4.171 0 000 4.167v11.666A4.171 4.171 0 004.167 20h11.666A4.171 4.171 0 0020 15.833V4.167A4.171 4.171 0 0015.833 0zm2.5 15.833a2.5 2.5 0 01-2.5 2.5H4.167a2.502 2.502 0 01-2.5-2.5V4.167a2.5 2.5 0 012.5-2.5h11.666a2.5 2.5 0 012.5 2.5v11.666z" fill="#fff"/><path d="M9.999 4.586a5.423 5.423 0 00-5.417 5.417 5.423 5.423 0 005.417 5.416 5.423 5.423 0 005.416-5.416A5.423 5.423 0 0010 4.586zm0 9.167a3.755 3.755 0 01-3.75-3.75 3.755 3.755 0 013.75-3.75 3.755 3.755 0 013.75 3.75 3.755 3.755 0 01-3.75 3.75zm5.833-10.839a1.251 1.251 0 000 2.5 1.25 1.25 0 000-2.5z" fill="#fff"/></svg>