<svg width="1179" height="536" fill="none" xmlns="http://www.w3.org/2000/svg"><path d="M3.254 60.118c19.454-32.173 81.334-63.1 120.585-55.504 56.143 10.867 89.548 31.929 111.594 84.038 9.184 21.707 16.443 47.638 30.293 66.84 18.471 25.607 49.162 44.156 78.175 55.504 39.768 15.554 80.905 27.958 123.712 30.293 32.538 1.775 65.548 2.899 98.11.977 14.165-.836 38.399.766 49.25-10.749 10.903-11.571 16.615-26.173 13.583-39.517-5.838-25.687-16.52-52.743-33.225-73.289-14.3-17.59-41.945-37.622-63.712-45.537-48.102-17.492-104.511-9.113-140.422 24.078-18.118 16.745-31.868 37.251-41.433 59.999-12.042 28.641-11.141 64.862-10.456 95.373.613 27.25 6.417 50.759 14.854 76.514 4.76 14.532 12.255 36.104 24.038 46.709 15.103 13.593 32.987 26.177 52.182 33.127 32.283 11.689 98.335 12.09 126.546-5.863 33.696-21.443 48.045-46.682 71.628-76.416C654.508 293.973 698.919 282.027 745.5 292c63.3 13.553 78.07 99.402 100.5 131.822 43 62.152 55.044 82.256 110.5 99.353 38.913 11.996 81.83 11.671 104.27 0 39.31-20.447 70.23-60.548 115.23-114.201" stroke="#F5F059" stroke-width="6" stroke-linecap="round"/></svg>