<svg width="193" height="341" fill="none" xmlns="http://www.w3.org/2000/svg"><path d="M26.83 115.417c-7.585-30.937-1.55-61.337 16.24-81C65.92 9.16 102.072.957 133.95 12.901c16.694 6.255 49.114 34.183 50.489 59.274 1.084 19.768 1.251 45.27-10.537 58.391-13.025 14.499-30.812 22.699-45.794 34.338-9.681 7.521-21.049 17.218-26.227 33.96-2.88 9.312-4.92 21.017-5.376 34.736-.34 10.227 2.329 17.491 1.478 26.159m18.258 68.389c-22.652 2.936 5.233 5.114-2.106.255-4.476-2.963-10.88-4.926-15.415-1.976-6.826 4.442 1.463 8.468 5.375 8.852 5.672.557-5.856-8.899-10.528-9.358" stroke="#F5F059" stroke-width="6" stroke-linecap="round"/></svg>