<svg width="39" height="42" fill="none" xmlns="http://www.w3.org/2000/svg"><path d="M14 27.332l1.414-.501-.22-.62-.603-.258L14 27.332zm0 0l1.414-.501h0v.002l.002.005.008.023.032.09.122.342.443 1.25 1.435 4.034c.781 2.192 1.643 4.603 2.31 6.456.653-1.844 1.49-4.247 2.248-6.437a2428.644 2428.644 0 001.823-5.288l.118-.343.03-.09.009-.022.002-.006v-.001h0l1.42.486-1.42-.487.218-.634.618-.261 11.636-4.908a538.763 538.763 0 01-6.264-2.532c-1.45-.594-2.79-1.147-3.769-1.553l-1.165-.482-.32-.133-.083-.035-.021-.009-.005-.002h-.002 0l.576-1.386M14 27.332l.59-1.379h0-.001l-.006-.003-.022-.01-.085-.036-.328-.14a1042.813 1042.813 0 00-5.052-2.143c-2.12-.893-4.48-1.876-6.28-2.598a1991.63 1991.63 0 009.552-3.685l1.117-.433.306-.12.08-.03.02-.008.005-.002h.001l-.543-1.399m0 0l.544 1.398.612-.238.24-.611-1.396-.549zm0 0l1.396.549h0v-.002l.003-.007.01-.024.037-.096.144-.365a1855.067 1855.067 0 002.193-5.613c.91-2.34 1.908-4.916 2.64-6.845A735.63 735.63 0 0122.018 9.5a1728.557 1728.557 0 011.816 5.41l.117.351.03.092.008.024.002.005v.002h0l1.424-.474m0 0l-1.423.474.216.649.63.262.577-1.385zM19.092.496a.747.747 0 011.408 0h-1.408z" stroke="#F5F059" stroke-width="3"/></svg>