<svg width="301" height="20" fill="none" xmlns="http://www.w3.org/2000/svg"><path d="M2 12.82c12.587-8.586 30.987-6.425 43.843.32 15.225 7.99 30.703 5.08 46.072-1.201 3.863-1.58 10.717-5.248 15.027-4.008 4.931 1.418 9.847 3.344 14.697 4.729 6.593 1.883 12.125 2.017 18.743-.721 3.675-1.521 6.693-3.283 10.403-4.329 3.614-1.018 8.896-3.048 12.468-1.122 5.056 2.727 13.452 6.77 19.08 8.096 7.388 1.742 16.596 2.463 23.532-1.202 3.865-2.043 7.668-3.897 11.022-6.653 1.747-1.434 4.817-2.975 7.06-3.286 9.483-1.315 20.265 6.025 29.146 9.218 6.248 2.246 9.279 2.228 16.266.721 8.72-1.881 15.532-3.236 23.242-7.695 1.59-.92 5.573-2.084 6.399-3.687" stroke="#F5F059" stroke-width="3" stroke-linecap="round"/></svg>