<svg width="373" height="47" fill="none" xmlns="http://www.w3.org/2000/svg"><path d="M360.275 24.62c-27.513-8.783-55.477-13.365-84.07-17.283-25.802-3.535-51.478-3.944-77.483-4.528-37.389-.84-74.865-1.35-112.234.139-13.394.533-26.715.852-40.04 2.541-11.442 1.45-25.717.563-35.911 6.654C5.758 15 2 20.672 2 26.283c0 9.985 18.518 12.535 24.822 14.093 29.899 7.39 60.513 4.216 90.938 2.08 33.726-2.369 67.92-5.36 101.748-5.36 28.444 0 56.218-.695 84.071-7.717 17.668-4.455 35.289-8.762 52.846-13.4 10.252-2.71 21.953-5.713 30.575-12.153" stroke="#F5F059" stroke-width="3" stroke-linecap="round"/></svg>