<svg width="251" height="15" fill="none" xmlns="http://www.w3.org/2000/svg"><path d="M2 2c4.37 5.075 10.868 5.439 16.711 7.39 3.72 1.242 8.474 2.238 12.357 1.166 3.3-.91 6.546-2.161 9.87-3.111 6.456-1.845 8.624-4.819 15.276-5.149 6.44-.32 11.657 1.976 17.504 5.149 2.446 1.328 8.981 3.32 11.63 4.192 9.674 3.183 17.564-4.495 26.634-6.876 8.315-2.184 7.059-1.787 15.463.95 5.322 1.734 12.183 5.933 17.747 6.877 6.578 1.116 11.169-4.264 17.261-6.413 8.524-3.006 12.827-6.58 22.001-1.799C187.864 6.153 203.052 13 211.196 13c6.2 0 16.653-7.775 16.653-7.775 6.86-1.517 14.23-.492 21.151.95" stroke="#F5F059" stroke-width="3" stroke-linecap="round"/></svg>