<svg width="224" height="392" fill="none" xmlns="http://www.w3.org/2000/svg"><path d="M31.006 135.249C22.367 100.016 29.24 65.394 49.5 43.001 75.525 14.237 116.697 4.895 153 18.497c19.012 7.123 55.934 38.93 57.5 67.505 1.234 22.513 1.424 51.557-12 66.5-14.833 16.512-35.091 25.851-52.153 39.106-11.025 8.566-23.972 19.609-29.869 38.676-3.28 10.605-5.605 23.935-6.123 39.559-.387 11.647 2.652 19.92 1.683 29.792m20.793 77.883c-25.797 3.345 5.96 5.825-2.399.292-5.097-3.375-12.391-5.611-17.555-2.251-7.774 5.058 1.665 9.644 6.121 10.081 6.46.635-6.67-10.135-11.989-10.657" stroke="#F5F059" stroke-width="6" stroke-linecap="round"/></svg>