<svg width="128" height="161" fill="none" xmlns="http://www.w3.org/2000/svg"><path d="M25.49 57.395l70.145 75.563 3.675 6.967s7.385 6.21 13.76 5.502c8.413-.933 12.459-9.96 12.459-9.96s.182-7.293-2.085-11.111c-2.226-3.749-7.018-7.29-7.018-7.29L45.418 38.718 25.494 28.335 7.231 17.955l8.678 19.379 9.58 20.061z" fill="#F5F059"/><path d="M46.246 47.857l22.928 25.814 22.928 25.813M40.106 53.758L63.034 79.57l22.928 25.814m8.915 30.226l21.514-18.851M15.225 36.7l10.508-10.948m9.717 33.531l22.927 25.814 22.929 25.813" stroke="#fff"/><path d="M40.717 100.473l3.992 10.197s4.982 1.241 8.13.738c3.67-.587 8.571-4.14 8.571-4.14 1.6-2.587 7.389-9.165 7.389-9.165s16.476-22 23.42-32.299l22.83-34.811.885-9.755-3.03-2.734-11.085 4.732-12.782 14.413-30.959 34.073S48.893 82.28 44.928 90.2c-1.942 3.877-4.211 10.273-4.211 10.273zm-18.473 13.894l15.593-.225 1.478 1.774s5.119 8.515 4.437 14.336c-1.235 10.543-21.946 16.04-21.946 16.04L1.04 140.31s7.103-.343 10.124-3.18c3.978-3.735.319-8.854 2.88-13.672 2.244-4.222 8.201-9.091 8.201-9.091z" fill="#707DEC"/></svg>