<svg width="26" height="18" fill="none" xmlns="http://www.w3.org/2000/svg"><path d="M24.324 1.653c-.69-1.204-1.437-1.425-2.96-1.51-1.52-.1-5.346-.143-8.66-.143C9.385 0 5.56.042 4.04.142c-1.52.086-2.27.305-2.965 1.51C.365 2.856 0 4.926 0 8.57v.013c0 3.63.365 5.715 1.075 6.905.695 1.204 1.443 1.422 2.963 1.523 1.52.088 5.347.139 8.667.139 3.313 0 7.138-.051 8.66-.137 1.523-.102 2.271-.32 2.96-1.524.716-1.19 1.078-3.275 1.078-6.905v-.012c0-3.647-.362-5.717-1.08-6.92z" fill="#fff"/><path d="M9.523 13.253V3.898l7.939 4.678-7.939 4.677z" fill="#707DEC"/></svg>