<svg width="69" height="69" viewBox="0 0 69 69" fill="none" xmlns="http://www.w3.org/2000/svg">
<circle cx="34.4883" cy="34.4883" r="34.4883" fill="#707DEC"/>
<path d="M51.4388 38.1831L51.405 37.7199C50.8627 30.6599 47.5754 26.2341 44.6754 22.3303C41.9901 18.7155 39.6708 15.594 39.6708 10.9881C39.6708 10.6182 39.4637 10.2802 39.1352 10.1106C38.8058 9.94007 38.4099 9.96799 38.1104 10.1857C33.755 13.3025 30.121 18.5557 28.8516 23.568C27.9703 27.0576 27.8537 30.9805 27.8373 33.5715C23.8151 32.7123 22.904 26.6954 22.8944 26.6299C22.8491 26.3178 22.6584 26.0462 22.381 25.8979C22.1008 25.7515 21.7713 25.7409 21.4872 25.8815C21.2763 25.9836 16.3101 28.5071 16.0212 38.5837C16.0009 38.9189 16 39.2541 16 39.5902C16 49.3789 23.9644 57.3433 33.7531 57.3433C43.5418 57.3433 51.5062 49.3789 51.5062 39.5902C51.5062 39.099 51.4725 38.6406 51.4388 38.1831ZM33.7531 55.3708C30.4898 55.3708 27.8354 52.5429 27.8354 49.0668C27.8354 48.9484 27.8345 48.8289 27.8431 48.6826C27.8825 47.2166 28.161 46.2159 28.4663 45.5504C29.0384 46.7794 30.0622 47.9091 31.7228 47.9091C32.2679 47.9091 32.7091 47.468 32.7091 46.9228C32.7091 45.5185 32.738 43.8985 33.0876 42.4364C33.3988 41.139 34.1423 39.7606 35.0843 38.6549C35.5032 40.0901 36.3201 41.2516 37.1176 42.3853C38.2589 44.0073 39.4388 45.6841 39.6459 48.5438C39.6584 48.7133 39.671 48.8838 39.671 49.0668C39.6708 52.5429 37.0163 55.3708 33.7531 55.3708ZM39.9863 54.0821C41.01 52.686 41.6434 50.9602 41.6434 49.0668C41.6434 48.8348 41.629 48.619 41.6 48.2154C41.366 44.9956 39.9665 43.0057 38.7308 41.2499C37.6781 39.755 36.7698 38.4635 36.7698 36.6315C36.7698 36.2568 36.5579 35.9149 36.2227 35.7482C35.8895 35.5806 35.4869 35.6182 35.1892 35.8446C33.2976 37.2739 31.7199 39.6799 31.169 41.9771C30.8877 43.1551 30.7895 44.4293 30.7548 45.4772C30.071 44.7414 29.8591 43.3775 29.8572 43.3592C29.8129 43.0424 29.6184 42.7659 29.3342 42.6186C29.052 42.4722 28.714 42.4683 28.4298 42.6147C28.1813 42.7419 25.9979 43.994 25.8727 48.5998C25.864 48.7559 25.863 48.9119 25.863 49.0669C25.863 50.9603 26.4964 52.6861 27.5202 54.0822C21.9109 51.6601 17.9728 46.0782 17.9728 39.5904C17.9728 39.2947 17.9719 39 17.992 38.6715C18.1615 32.7595 20.0533 29.8277 21.288 28.5342C22.149 31.6163 24.4048 35.6452 28.8219 35.6452C29.3671 35.6452 29.8082 35.2041 29.8082 34.6589C29.8082 31.3581 29.8824 27.544 30.7646 24.0516C31.7663 20.0948 34.5104 15.8223 37.8227 12.9299C38.3727 17.1544 40.6736 20.2519 43.0922 23.5064C45.9673 27.3764 48.9396 31.3783 49.4376 37.8586L49.4713 38.3305C49.5021 38.7408 49.5339 39.1502 49.5339 39.5903C49.5336 46.0781 45.5955 51.66 39.9863 54.0821Z" fill="#DDE1FF"/>
</svg>
