<svg width="103" height="103" viewBox="0 0 103 103" fill="none" xmlns="http://www.w3.org/2000/svg">
<path d="M44.659 20.7268C46.8357 14.132 56.1643 14.132 58.341 20.7268V20.7268C59.7204 24.9061 64.492 26.8826 68.4227 24.9027V24.9027C74.625 21.7787 81.2213 28.375 78.0973 34.5773V34.5773C76.1174 38.508 78.0939 43.2796 82.2732 44.659V44.659C88.868 46.8357 88.868 56.1643 82.2732 58.341V58.341C78.0939 59.7204 76.1174 64.492 78.0973 68.4227V68.4227C81.2213 74.625 74.625 81.2213 68.4227 78.0973V78.0973C64.492 76.1174 59.7204 78.0939 58.341 82.2732V82.2732C56.1643 88.868 46.8357 88.868 44.659 82.2732V82.2732C43.2796 78.0939 38.508 76.1174 34.5773 78.0973V78.0973C28.375 81.2213 21.7787 74.625 24.9027 68.4227V68.4227C26.8826 64.492 24.9061 59.7204 20.7268 58.341V58.341C14.132 56.1643 14.132 46.8357 20.7268 44.659V44.659C24.9061 43.2796 26.8826 38.508 24.9027 34.5773V34.5773C21.7787 28.375 28.375 21.7787 34.5773 24.9027V24.9027C38.508 26.8826 43.2796 24.9061 44.659 20.7268V20.7268Z" fill="#F143C4"/>
<path d="M49.5548 51.8855C20.5586 79.8867 21.0725 24.3867 49.5548 51.8855ZM49.5548 51.8855C78.558 79.8861 77.058 24.3867 49.5548 51.8855Z" stroke="#FFC0EF" stroke-width="2"/>
</svg>
