<svg width="298" height="17" viewBox="0 0 298 17" fill="none" xmlns="http://www.w3.org/2000/svg">
<path d="M2 2C7.2021 7.99796 14.9362 8.4276 21.8909 10.7332C26.3195 12.2014 31.9773 13.3781 36.5994 12.1121C40.5276 11.0362 44.3907 9.55731 48.3464 8.435C56.0318 6.25452 58.6127 2.74014 66.5295 2.35005C74.1949 1.97236 80.4051 4.68459 87.3642 8.435C90.2766 10.0046 98.0548 12.3586 101.208 13.3889C112.722 17.1513 122.114 8.07724 132.91 5.26251C142.807 2.6822 141.312 3.15145 151.315 6.38609C157.65 8.43464 165.817 13.397 172.439 14.5125C180.269 15.8314 185.733 9.47413 192.984 6.93463C203.131 3.38105 208.252 -0.841245 219.172 4.80839C223.231 6.90837 241.309 15 251.003 15C258.382 15 270.825 5.81121 270.825 5.81121C278.99 4.01908 287.762 5.22999 296 6.93478" stroke="#F5F059" stroke-width="3" stroke-linecap="round"/>
</svg>
