<svg width="20" height="20" viewBox="0 0 20 20" fill="none" xmlns="http://www.w3.org/2000/svg">
<path d="M15.8333 0H4.16667C1.8691 0 0 1.8691 0 4.16667V15.8333C0 18.1309 1.8691 20 4.16667 20H15.8333C18.1309 20 20 18.1309 20 15.8333V4.16667C20 1.8691 18.1309 0 15.8333 0ZM18.3333 15.8333C18.3333 17.2121 17.2121 18.3333 15.8333 18.3333H4.16667C2.78788 18.3333 1.66667 17.2121 1.66667 15.8333V4.16667C1.66667 2.78788 2.78788 1.66667 4.16667 1.66667H15.8333C17.2121 1.66667 18.3333 2.78788 18.3333 4.16667V15.8333Z" fill="white"/>
<path d="M9.9987 4.58594C7.01204 4.58594 4.58203 7.01595 4.58203 10.0026C4.58203 12.9893 7.01204 15.4193 9.9987 15.4193C12.9854 15.4193 15.4154 12.9893 15.4154 10.0026C15.4154 7.01595 12.9854 4.58594 9.9987 4.58594ZM9.9987 13.7526C7.93123 13.7526 6.2487 12.0701 6.2487 10.0026C6.2487 7.93514 7.93123 6.2526 9.9987 6.2526C12.0662 6.2526 13.7487 7.93514 13.7487 10.0026C13.7487 12.0701 12.0662 13.7526 9.9987 13.7526Z" fill="white"/>
<path d="M15.832 2.91406C15.1429 2.91406 14.582 3.47498 14.582 4.16406C14.582 4.85315 15.1429 5.41406 15.832 5.41406C16.5211 5.41406 17.082 4.85315 17.082 4.16406C17.082 3.47498 16.5211 2.91406 15.832 2.91406Z" fill="white"/>
</svg>
