<svg width="1179" height="536" viewBox="0 0 1179 536" fill="none" xmlns="http://www.w3.org/2000/svg">
<path d="M3.25391 60.1185C22.7077 27.9448 84.5884 -2.98258 123.839 4.61426C179.982 15.4807 213.387 36.5428 235.433 88.6523C244.617 110.359 251.876 136.29 265.726 155.492C284.197 181.099 314.888 199.648 343.901 210.996C383.669 226.55 424.806 238.954 467.613 241.289C500.151 243.064 533.161 244.188 565.723 242.266C579.888 241.43 604.122 243.032 614.973 231.517C625.876 219.946 631.588 205.344 628.556 192C622.718 166.313 612.036 139.257 595.331 118.711C581.031 101.121 553.386 81.0894 531.619 73.1741C483.517 55.6825 427.108 64.0615 391.197 97.2516C373.079 113.997 359.329 134.503 349.764 157.251C337.722 185.892 338.623 222.113 339.308 252.624C339.921 279.874 345.725 303.383 354.162 329.138C358.922 343.67 366.417 365.242 378.2 375.847C393.303 389.44 411.187 402.024 430.382 408.974C462.665 420.663 528.717 421.064 556.928 403.111C590.624 381.668 604.973 356.429 628.556 326.695C654.508 293.973 698.919 282.027 745.5 292C808.8 305.553 823.57 391.402 846 423.822C889 485.974 901.044 506.078 956.5 523.175C995.413 535.171 1038.33 534.846 1060.77 523.175C1100.08 502.728 1131 462.627 1176 408.974" stroke="#F5F059" stroke-width="6" stroke-linecap="round"/>
</svg>
