<svg width="193" height="341" viewBox="0 0 193 341" fill="none" xmlns="http://www.w3.org/2000/svg">
<path d="M26.8301 115.417C19.2447 84.4804 25.2798 54.0796 43.0691 34.4174C65.9205 9.16035 102.073 0.957186 133.95 12.9009C150.644 19.1555 183.064 47.0843 184.439 72.1747C185.523 91.9429 185.69 117.445 173.902 130.566C160.877 145.065 143.09 153.265 128.108 164.904C118.427 172.425 107.059 182.122 101.881 198.864C99.0012 208.176 96.9602 219.881 96.5046 233.6C96.165 243.827 98.8337 251.091 97.9825 259.759" stroke="#F5F059" stroke-width="6" stroke-linecap="round"/>
<path d="M116.241 328.148C93.5894 331.084 121.474 333.262 114.135 328.403C109.659 325.44 103.255 323.477 98.7205 326.427C91.8943 330.869 100.183 334.895 104.095 335.279C109.767 335.836 98.2385 326.38 93.5674 325.921" stroke="#F5F059" stroke-width="6" stroke-linecap="round"/>
</svg>
