<svg width="361" height="256" viewBox="0 0 361 256" fill="none" xmlns="http://www.w3.org/2000/svg">
<path d="M2 67.1017C4.41745 48.9397 13.1164 37.5217 27.6016 25.9422C36.5089 18.8218 46.5307 13.1532 56.996 8.68692C61.717 6.67218 73.8011 -0.00702477 79.2789 2.59215C86.06 5.80976 87.8602 22.5805 88.4449 28.95C90.109 47.0781 82.0599 63.5187 76.0392 80.0036C60.3439 122.978 30.0956 160.799 27.7596 207.598C27.1177 220.459 22.7923 258.366 45.4595 253.586C61.2245 250.261 77.9442 236.351 91.1315 227.544C116.307 210.732 143.271 197.198 168.41 180.29C186.087 168.401 219.859 154.321 240.948 162.243C243.544 163.219 241.81 167.061 243.24 169.13C248.083 176.137 252.073 184.267 255.961 191.847C260.854 201.384 263.395 203.765 273.819 207.44C300.721 216.921 331.169 213.356 359 212.426" stroke="#F5F059" stroke-width="3" stroke-linecap="round"/>
</svg>
