<svg width="39" height="42" viewBox="0 0 39 42" fill="none" xmlns="http://www.w3.org/2000/svg">
<path d="M13.9999 27.332L15.4136 26.8306L15.1942 26.2119L14.5909 25.9533L13.9999 27.332ZM13.9999 27.332C15.4136 26.8306 15.4136 26.8306 15.4136 26.8307L15.4138 26.8311L15.4143 26.8325L15.4163 26.8383L15.4244 26.861L15.4561 26.9504L15.5776 27.2929L16.0213 28.5424C16.3942 29.592 16.9049 31.0285 17.4563 32.5765C18.2373 34.7688 19.0986 37.1804 19.7658 39.033C20.4188 37.1894 21.2553 34.786 22.0138 32.5956C22.55 31.0471 23.0456 29.6094 23.4073 28.5588C23.5881 28.0335 23.7354 27.605 23.8374 27.3079L23.9552 26.9651L23.9859 26.8757L23.9937 26.8529L23.9956 26.8472L23.9961 26.8458L23.9963 26.8454C23.9963 26.8453 23.9963 26.8453 25.4151 27.332L23.9963 26.8453L24.214 26.2106L24.8322 25.9499L36.4678 21.042C34.6712 20.334 32.315 19.376 30.2037 18.5104C28.7549 17.9163 27.4138 17.3626 26.4351 16.9575C25.9457 16.7549 25.5468 16.5894 25.2701 16.4746L24.9508 16.3419L24.8674 16.3072L24.846 16.2983L24.8406 16.2961L24.8392 16.2955L24.8389 16.2953C24.8388 16.2953 24.8387 16.2953 25.4151 14.9104M13.9999 27.332C14.5909 25.9533 14.5908 25.9533 14.5907 25.9533L14.5904 25.9531L14.5889 25.9525L14.5833 25.9501L14.5614 25.9407L14.4756 25.904L14.1477 25.7637C13.8636 25.6423 13.4543 25.4675 12.9525 25.2538C11.949 24.8266 10.5755 24.2435 9.09579 23.6207C6.97516 22.7281 4.61569 21.7451 2.81622 21.0233C4.54548 20.3637 6.75782 19.5108 8.74706 18.7415C10.1417 18.2021 11.4293 17.7028 12.3681 17.3384L13.4848 16.9047L13.7905 16.7859L13.8702 16.7549L13.8906 16.7469L13.8958 16.7449L13.8971 16.7444L13.8974 16.7443C13.8975 16.7443 13.8975 16.7442 13.3537 15.3463M13.3537 15.3463L13.8975 16.7442L14.5097 16.5061L14.7498 15.8948L13.3537 15.3463ZM13.3537 15.3463C14.7498 15.8948 14.7499 15.8948 14.7499 15.8947L14.75 15.8943L14.7507 15.8927L14.7531 15.8865L14.7627 15.862L14.8002 15.7664L14.9438 15.4007C15.0681 15.0839 15.247 14.6275 15.4657 14.0688C15.9032 12.9516 16.5 11.425 17.1371 9.78792C18.0478 7.4482 19.0454 4.87173 19.7776 2.94332C20.4254 4.80018 21.26 7.25417 22.0181 9.50011C22.5517 11.0808 23.0452 12.5521 23.4054 13.6282C23.5854 14.1662 23.7321 14.6054 23.8338 14.91L23.951 15.2615L23.9816 15.3532L23.9894 15.3766L23.9913 15.3824L23.9918 15.3839L23.9919 15.3843C23.992 15.3843 23.992 15.3844 25.4151 14.9104M25.4151 14.9104L23.992 15.3844L24.2079 16.0327L24.8387 16.2953L25.4151 14.9104ZM19.0924 0.495771C19.3342 -0.165258 20.2582 -0.165257 20.5 0.495773L19.0924 0.495771Z" stroke="#F5F059" stroke-width="3"/>
</svg>
