<svg width="82" height="86" viewBox="0 0 82 86" fill="none" xmlns="http://www.w3.org/2000/svg">
<path d="M29.1184 55.9655C31.9413 54.95 31.9413 54.9501 31.9414 54.9502L31.9417 54.951L31.9427 54.9539L31.9469 54.9657L31.9637 55.0123L32.0296 55.1953L32.282 55.8965C32.5007 56.5043 32.8163 57.3807 33.2035 58.4552C33.9779 60.6043 35.0386 63.5458 36.184 66.7154C37.8509 71.3286 39.694 76.4162 41.0947 80.2484C42.4665 76.435 44.257 71.3641 45.8761 66.7542C46.9897 63.5835 48.0192 60.6396 48.7703 58.4883C49.1458 57.4127 49.4517 56.5354 49.6637 55.927L49.9082 55.225L49.972 55.042L49.9882 54.9953L49.9923 54.9836L49.9933 54.9806L49.9936 54.9799C49.9936 54.9797 49.9936 54.9797 52.827 55.9655L49.9936 54.9797L50.435 53.7112L51.6751 53.1954L75.9905 43.0839C72.2422 41.6293 67.2756 39.6387 62.8301 37.8417C59.8212 36.6254 57.0361 35.4917 55.0034 34.6622C53.987 34.2474 53.1585 33.9086 52.584 33.6734L51.9209 33.4018L51.7476 33.3307L51.7033 33.3125L51.692 33.3079L51.6891 33.3067L51.6884 33.3064C51.6882 33.3064 51.6881 33.3063 52.827 30.5309M29.1184 55.9655L31.9413 54.95L31.4965 53.7136L30.2863 53.2021L29.1184 55.9655ZM29.1184 55.9655C30.2863 53.2021 30.2862 53.2021 30.286 53.202L30.2852 53.2017L30.2823 53.2004L30.2707 53.1955L30.225 53.1763L30.047 53.1011L29.3659 52.8139C28.7761 52.5654 27.9258 52.2075 26.8837 51.77C24.7997 50.8952 21.9472 49.7014 18.8743 48.4262C14.4068 46.5724 9.43093 44.5288 5.67634 43.0461C9.29026 41.6878 13.9604 39.9128 18.1538 38.3139C21.0503 37.2094 23.7244 36.1872 25.6742 35.441C26.6492 35.0679 27.4432 34.7638 27.9934 34.553L28.6283 34.3097L28.794 34.2462L28.8363 34.2299L28.847 34.2258L28.8497 34.2248L28.8504 34.2245C28.8505 34.2245 28.8506 34.2244 27.7764 31.4234M27.7764 31.4234L28.8506 34.2244L30.077 33.7541L30.5633 32.5339L27.7764 31.4234ZM27.7764 31.4234C30.5633 32.5339 30.5633 32.5338 30.5634 32.5337L30.5637 32.5328L30.565 32.5296L30.57 32.5169L30.59 32.4669L30.6679 32.2711L30.9661 31.5222C31.2242 30.8735 31.5958 29.939 32.0501 28.7951C32.9587 26.5074 34.1981 23.3815 35.5215 20.0295C37.4622 15.1138 39.5927 9.688 41.1229 5.70904C42.483 9.54534 44.268 14.7186 45.8852 19.4421C46.9934 22.6788 48.0184 25.6914 48.7664 27.8949C49.1404 28.9966 49.4451 29.8959 49.6562 30.5196L49.8998 31.2394L49.9632 31.4271L49.9794 31.475L49.9835 31.487L49.9845 31.49L49.9847 31.4907C49.9848 31.4909 49.9848 31.491 52.827 30.5309M52.827 30.5309L49.9848 31.491L50.4226 32.787L51.6881 33.3063L52.827 30.5309Z" stroke="#F5F059" stroke-width="6"/>
</svg>
