<svg width="301" height="20" viewBox="0 0 301 20" fill="none" xmlns="http://www.w3.org/2000/svg">
<path d="M2 12.8203C14.587 4.23376 32.9875 6.39504 45.8429 13.1409C61.0677 21.1302 76.5457 18.2209 91.9151 11.9386C95.7785 10.3595 102.632 6.69115 106.942 7.93087C111.873 9.34918 116.789 11.275 121.639 12.66C128.232 14.5425 133.764 14.6771 140.382 11.9386C144.057 10.4179 147.075 8.65607 150.785 7.61024C154.399 6.5916 159.681 4.56189 163.253 6.48807C168.309 9.21528 176.705 13.2573 182.333 14.5844C189.721 16.3261 198.929 17.0467 205.865 13.382C209.73 11.3395 213.533 9.48469 216.887 6.72916C218.634 5.29474 221.704 3.75388 223.947 3.4428C233.43 2.12771 244.212 9.46757 253.093 12.6606C259.341 14.9073 262.372 14.8893 269.359 13.382C278.079 11.5007 284.891 10.1464 292.601 5.68715C294.191 4.76757 298.174 3.60286 299 2.00001" stroke="#F5F059" stroke-width="3" stroke-linecap="round"/>
</svg>
