<svg width="373" height="47" viewBox="0 0 373 47" fill="none" xmlns="http://www.w3.org/2000/svg">
<path d="M360.275 24.6194C332.762 15.8367 304.798 11.2551 276.205 7.3375C250.403 3.80244 224.727 3.39275 198.722 2.8091C161.333 1.96995 123.857 1.45905 86.4884 2.94773C73.0944 3.48131 59.7733 3.80012 46.4481 5.48917C35.0062 6.93949 20.7307 6.0518 10.537 12.1431C5.75807 14.9989 2 20.6716 2 26.2828C2 36.2683 20.5176 38.818 26.8222 40.3763C56.7209 47.7663 87.3353 44.5923 117.76 42.4557C151.486 40.0872 185.68 37.0956 219.508 37.0956C247.952 37.0956 275.726 36.4014 303.579 29.3788C321.247 24.9239 338.868 20.6173 356.425 15.9784C366.677 13.2695 378.378 10.2656 387 3.82568" stroke="#F5F059" stroke-width="3" stroke-linecap="round"/>
</svg>
