<svg width="251" height="15" viewBox="0 0 251 15" fill="none" xmlns="http://www.w3.org/2000/svg">
<path d="M2 2C6.37048 7.0752 12.8682 7.43874 18.7111 9.38965C22.4317 10.6319 27.185 11.6277 31.0682 10.5564C34.3684 9.64602 37.6139 8.39464 40.9373 7.445C47.3941 5.59998 49.5623 2.62627 56.2136 2.2962C62.6536 1.97661 67.8709 4.27158 73.7175 7.445C76.1643 8.77309 82.6991 10.765 85.3482 11.6368C95.0217 14.8203 102.912 7.14228 111.982 4.76059C120.297 2.57724 119.041 2.97431 127.445 5.7113C132.767 7.4447 139.628 11.6436 145.192 12.5875C151.77 13.7035 156.361 8.32426 162.453 6.17546C170.977 3.16858 175.28 -0.404129 184.454 4.37633C187.864 6.15324 203.052 13 211.196 13C217.396 13 227.849 5.22487 227.849 5.22487C234.709 3.70845 242.079 4.73307 249 6.17559" stroke="#F5F059" stroke-width="3" stroke-linecap="round"/>
</svg>
