<svg width="625" height="38" viewBox="0 0 625 38" fill="none" xmlns="http://www.w3.org/2000/svg">
<path d="M2 25.3044C28.3176 6.811 66.7906 11.4659 93.6694 25.995C125.502 43.202 157.865 36.9361 190 23.4055C198.078 20.0043 212.408 12.1036 221.42 14.7737C231.729 17.8284 242.007 21.9763 252.149 24.9592C265.934 29.0137 277.499 29.3034 291.337 23.4055C299.021 20.1302 305.33 16.3356 313.089 14.0832C320.646 11.8892 331.69 7.51772 339.157 11.6663C349.73 17.54 367.283 26.2456 379.051 29.1038C394.498 32.8552 413.752 34.4071 428.253 26.5143C436.335 22.115 444.286 18.1203 451.299 12.1855C454.951 9.09609 461.37 5.77745 466.06 5.10746C485.887 2.27505 508.432 18.0834 527 24.9605C540.064 29.7992 546.401 29.7606 561.009 26.5143C579.243 22.4622 593.485 19.5455 609.606 9.94125C612.931 7.9607 621.259 5.45219 622.985 2.00003" stroke="#F5F059" stroke-width="3" stroke-linecap="round"/>
</svg>
