<svg width="224" height="392" viewBox="0 0 224 392" fill="none" xmlns="http://www.w3.org/2000/svg">
<path d="M31.0058 135.249C22.3671 100.016 29.2402 65.394 49.4999 43.0015C75.5245 14.2371 116.697 4.89479 153.001 18.4971C172.013 25.6202 208.935 57.4273 210.501 86.0019C211.735 108.515 211.925 137.559 198.501 152.502C183.668 169.014 163.41 178.353 146.348 191.608C135.323 200.174 122.376 211.217 116.479 230.284C113.199 240.889 110.874 254.219 110.356 269.843C109.969 281.49 113.008 289.763 112.039 299.635" stroke="#F5F059" stroke-width="6" stroke-linecap="round"/>
<path d="M132.831 377.518C107.034 380.863 138.791 383.343 130.432 377.81C125.335 374.435 118.041 372.199 112.877 375.559C105.103 380.617 114.542 385.203 118.998 385.64C125.458 386.275 112.328 375.505 107.009 374.983" stroke="#F5F059" stroke-width="6" stroke-linecap="round"/>
</svg>
