<svg width="119" height="143" viewBox="0 0 119 143" fill="none" xmlns="http://www.w3.org/2000/svg">
<path d="M42.5518 29.8669C42.5518 29.8669 32.7791 22.0331 31.5181 22.0331C30.2571 22.033 23.6369 27.2556 20.4844 29.8669L22.0607 40.051C26.1322 47.6659 31.5764 51.8657 40.1875 52.5852C40.1875 52.5852 46.439 54.0708 47.2806 57.2855C48.1856 60.7425 42.5518 65.1194 42.5518 65.1194L29.1538 67.4696L23.6369 76.0868L26.7894 87.0543L36.2469 91.7546C39.3993 89.6656 46.3348 85.1741 48.8568 83.9207C51.3788 82.6673 55.6872 81.8317 57.5261 81.5705C59.3651 81.3094 55.1618 88.621 55.1618 88.621L45.7043 105.072L44.1281 116.823C46.4924 118.39 52.0093 122.307 52.0093 122.307C52.0093 122.307 59.6278 118.39 63.043 116.04C63.043 116.04 67.2125 106.191 66.9836 99.5885C66.7194 91.9674 68.2429 73.4216 81.9579 87.0543L89.051 102.722L100.873 105.072C100.873 105.072 108.741 103.454 111.118 99.5885C114.021 94.8684 109.542 85.4875 109.542 85.4875C105.339 82.3539 96.4593 76.0868 94.5678 76.0868C92.6764 76.0868 90.1018 70.8642 89.051 68.253C88.0002 65.6417 94.5678 60.4191 94.5678 60.4191C98.2458 60.1579 106.39 59.7924 109.542 60.4191C112.695 61.0458 117.161 55.4576 119 52.5852L116.635 39.2676C116.635 39.2676 108.995 35.1111 104.025 36.1341C98.4807 37.2752 92.9916 45.5347 92.9916 45.5347C92.9916 45.5347 87.5993 48.1492 84.3223 47.1015C73.1384 43.5257 85.2381 32.1418 84.3223 24.3832C83.6953 19.072 78.8054 11.849 78.8054 11.849C75.3902 10.8045 67.7717 8.87214 64.6192 9.49885C61.4668 10.1256 57.0007 16.0271 55.1618 18.8995C55.1618 18.8995 56.2442 24.2711 57.5261 27.5168C65.6326 48.0411 54.4287 49.1851 42.5518 29.8669Z" fill="#F5F059"/>
<path d="M82.5805 129.136L79.4414 106.357L93.5675 123.637L88.074 132.278L82.5805 129.136Z" fill="#F5F059"/>
<path d="M7.10029 50.9303L21.8853 55.8327L7.10029 64.0034L0.875 55.8327L7.10029 50.9303Z" fill="#F5F059"/>
<path d="M41.4414 92.6333L46.5877 102.926C46.5877 102.926 51.9185 103.751 55.1649 102.926C58.9507 101.963 63.742 97.7796 63.742 97.7796C65.1715 94.9205 70.6037 87.487 70.6037 87.487C70.6037 87.487 85.7567 62.8991 92.0466 51.4629L112.632 12.8657V2.57315L109.201 0L98.0506 6.00401L86.0426 22.3006L56.8803 60.8978C56.8803 60.8978 48.2707 72.8188 44.8723 81.483C43.2087 85.7243 41.4414 92.6333 41.4414 92.6333Z" fill="#707DEC"/>
<path d="M23.4267 108.928L39.7233 107.213L41.4387 108.928C41.4387 108.928 47.6036 117.353 47.4427 123.509C47.1513 134.66 25.9998 142.379 25.9998 142.379L3.69922 138.09C3.69922 138.09 11.0997 137.057 13.9918 133.802C17.7999 129.515 13.4847 124.506 15.7072 119.221C17.6549 114.589 23.4267 108.928 23.4267 108.928Z" fill="#707DEC"/>
</svg>
