<svg width="109" height="169" viewBox="0 0 109 169" fill="none" xmlns="http://www.w3.org/2000/svg">
<path d="M85.3866 78.1125C70.0691 65.0331 30.9849 52.0747 13.3576 47.2305L2.41646 38.1484C0.592943 32.3959 -1.95999 19.9825 2.41646 16.3493C7.88702 11.8078 16.0929 0 24.2987 0C32.5045 0 48.9162 2.72489 53.475 6.35807C57.1221 9.26462 69.5828 20.8908 75.3573 26.3406C75.9651 26.0375 77.9102 25.2497 80.8278 24.5231C84.4749 23.6148 87.2102 27.248 89.0337 28.1563C90.4925 28.8829 85.9945 33.3033 83.5631 35.4226C84.171 36.3309 87.3925 40.5091 95.416 49.9554C103.439 59.4016 107.269 76.9015 108.181 84.4706L104.534 90.8287C104.534 92.0397 100.704 91.192 85.3866 78.1125Z" fill="#707DEC"/>
<path d="M41.1813 112.641L20.2117 101.806L12.918 108.126L20.2117 114.447L39.3579 118.961L43.9165 121.67L28.4172 135.214L22.9469 153.272L28.4172 168.622L44.8282 150.564C46.3478 145.447 49.3868 134.492 49.3868 131.602C49.3868 128.713 52.4259 130.398 53.9454 131.602L55.7689 144.243C56.6806 146.651 58.6864 151.828 59.4158 153.272C60.1451 154.717 69.4447 159.292 74.0033 161.399C74.0033 154.175 73.6386 138.826 72.1799 135.214C70.7211 131.602 60.6314 124.078 55.7689 120.767L72.1799 118.961C76.7385 117.757 86.2204 114.447 87.6791 110.835C89.1379 107.223 85.2479 102.107 83.1205 100L63.0626 110.835L41.1813 112.641Z" fill="#F5F059"/>
</svg>
