<svg width="128" height="161" viewBox="0 0 128 161" fill="none" xmlns="http://www.w3.org/2000/svg">
<path d="M25.4898 57.3953L95.635 132.958L99.3098 139.925C99.3098 139.925 106.695 146.135 113.07 145.427C121.483 144.494 125.529 135.467 125.529 135.467C125.529 135.467 125.711 128.174 123.444 124.356C121.218 120.607 116.426 117.066 116.426 117.066L45.4184 38.7177L25.494 28.3348L7.23061 17.9541L15.9085 37.3336L25.4898 57.3953Z" fill="#F5F059"/>
<path d="M46.2464 47.8573L69.1744 73.6708L92.1025 99.4843" stroke="white"/>
<path d="M40.1058 53.7577L63.0338 79.5712L85.9618 105.385" stroke="white"/>
<path d="M94.8774 135.61L116.391 116.759M15.2247 36.7004L25.7329 25.7521" stroke="white"/>
<path d="M35.4495 59.2831L58.3775 85.0966L81.3056 110.91" stroke="white"/>
<path d="M40.7167 100.473L44.7091 110.67C44.7091 110.67 49.6906 111.911 52.8383 111.408C56.5092 110.821 61.4101 107.268 61.4101 107.268C63.0108 104.681 68.7986 98.1031 68.7986 98.1031C68.7986 98.1031 85.2747 76.1024 92.2196 65.8043L115.049 30.993L115.934 21.2379L112.904 18.5041L101.819 23.2357L89.0369 37.6486L58.0784 71.7223C58.0784 71.7223 48.8932 82.2804 44.9272 90.1998C42.9858 94.0766 40.7167 100.473 40.7167 100.473Z" fill="#707DEC"/>
<path d="M22.2441 114.367L37.8371 114.142L39.3155 115.916C39.3155 115.916 44.4339 124.431 43.752 130.252C42.5169 140.795 21.8062 146.292 21.8062 146.292L1.03905 140.31C1.03905 140.31 8.1419 139.967 11.1629 137.13C15.1407 133.395 11.4817 128.276 14.0427 123.458C16.2869 119.236 22.2441 114.367 22.2441 114.367Z" fill="#707DEC"/>
</svg>
