<svg width="25" height="25" viewBox="0 0 25 25" fill="none" xmlns="http://www.w3.org/2000/svg">
<path d="M12.0512 0.3125C12.2053 -0.104168 12.7947 -0.104166 12.9488 0.312502C13.7682 2.52668 15.1645 6.53337 16.8072 8.19279C18.4335 9.83573 22.4943 11.2396 24.6875 12.0512C25.1042 12.2053 25.1042 12.7947 24.6875 12.9488C22.5185 13.7515 18.3955 15.1648 16.8072 16.8074C15.1653 18.5053 13.7771 22.4491 12.9488 24.6875C12.7947 25.1042 12.2053 25.1042 12.0512 24.6875C11.2188 22.4381 9.83375 18.5228 8.19256 16.8074C6.62133 15.1651 2.47061 13.7474 0.3125 12.9488C-0.104168 12.7947 -0.104166 12.2053 0.312502 12.0512C2.49643 11.243 6.58083 9.83568 8.19256 8.19279C9.835 6.51861 11.2284 2.536 12.0512 0.3125Z" fill="white"/>
</svg>
