<svg width="145" height="146" viewBox="0 0 145 146" fill="none" xmlns="http://www.w3.org/2000/svg">
<path d="M17.7874 50.3931C24.8489 23.6736 45.5516 -1.28435 79.2245 14.8708C97.359 23.5711 125.502 53.9987 125.502 53.9987C125.502 53.9987 135.266 75.3841 125.502 99.9976C115.739 124.611 46.5021 112.497 46.5021 112.497L17.7874 78.9978C17.7874 78.9978 14.3273 63.4854 17.7874 50.3931Z" fill="#F143C4"/>
<path d="M130.5 56.5495C130.5 79.7239 112.048 98.5037 88.7014 98.5037C65.3033 98.5037 44.5 80.6289 44.5 57.5038C44.5 34.3793 65.3445 16.5037 88.7432 16.5037C112.12 16.5037 130.5 33.4042 130.5 56.5495Z" stroke="black"/>
<path d="M34.5 35.5037H108.257L108.281 36.052C108.31 36.7156 108.353 37.6802 108.405 38.8842C108.509 41.2922 108.653 44.6577 108.812 48.4875C109.13 56.1474 109.507 65.6633 109.745 73.0907C109.972 80.1596 110.161 89.1986 110.293 96.472C110.359 100.108 110.411 103.303 110.446 105.588C110.464 106.731 110.477 107.646 110.486 108.276L110.493 108.747L34.5 109.499V35.5037Z" stroke="black"/>
<path d="M21.4382 58.9584L41.1195 20.0037L68.749 58.1946L96 96.0037C96 96.0037 65.7252 94.8579 47.1753 94.8579C28.6254 94.8579 1 96.0037 1 96.0037L21.4382 58.9584Z" stroke="black"/>
<path d="M44 57.0433C44 57.0433 55.4528 51.5079 62.8247 58.6576C70.1975 65.8074 73.9504 74.324 74.6784 75.1511L74.9955 74.8044L81.1547 81.8122L80.8431 82.1653C80.8431 82.1653 90.9885 91.4626 95.5668 96.6732C100.144 101.884 135.983 144.827 134.979 145.966L134.966 145.985C134.197 146.856 94.5901 108.019 90.0108 102.81C85.4324 97.5996 77.1421 86.3749 77.1421 86.3749L76.8323 86.7298L70.6731 79.7229L70.9765 79.3625C70.2495 78.5354 62.5851 81.9624 56.4824 65.8766C52.3914 55.0905 44 57.0433 44 57.0433Z" fill="black"/>
<path d="M66.3025 7.1375C66.3703 6.95417 66.6297 6.95417 66.6975 7.1375C67.058 8.11174 67.6724 9.87468 68.3951 10.6048C69.1108 11.3277 70.8975 11.9454 71.8625 12.3025C72.0458 12.3703 72.0458 12.6297 71.8625 12.6975C70.9081 13.0506 69.094 13.6725 68.3951 14.3953C67.6728 15.1423 67.0619 16.8776 66.6975 17.8625C66.6297 18.0458 66.3703 18.0458 66.3025 17.8625C65.9363 16.8728 65.3268 15.15 64.6047 14.3953C63.9134 13.6726 62.0871 13.0489 61.1375 12.6975C60.9542 12.6297 60.9542 12.3703 61.1375 12.3025C62.0984 11.9469 63.8956 11.3277 64.6047 10.6048C65.3274 9.86819 65.9405 8.11584 66.3025 7.1375Z" fill="black"/>
<path d="M81.7486 55.175C81.835 54.9417 82.165 54.9417 82.2514 55.175C82.7102 56.4149 83.4921 58.6587 84.412 59.588C85.3228 60.508 87.5968 61.2942 88.825 61.7486C89.0583 61.835 89.0583 62.165 88.825 62.2514C87.6103 62.7008 85.3015 63.4923 84.412 64.4121C83.4926 65.363 82.7152 67.5715 82.2514 68.825C82.165 69.0583 81.835 69.0583 81.7486 68.825C81.2825 67.5653 80.5069 65.3728 79.5878 64.4121C78.7079 63.4925 76.3835 62.6986 75.175 62.2514C74.9417 62.165 74.9417 61.835 75.175 61.7486C76.398 61.2961 78.6853 60.508 79.5878 59.588C80.5076 58.6504 81.2879 56.4202 81.7486 55.175Z" fill="black"/>
<path d="M5.30251 32.1375C5.37035 31.9542 5.62965 31.9542 5.69749 32.1375C6.05799 33.1117 6.67236 34.8747 7.39515 35.6048C8.11075 36.3277 9.89748 36.9454 10.8625 37.3025C11.0458 37.3703 11.0458 37.6297 10.8625 37.6975C9.90812 38.0506 8.09403 38.6725 7.39515 39.3953C6.67275 40.1423 6.06194 41.8776 5.69749 42.8625C5.62965 43.0458 5.37035 43.0458 5.30251 42.8625C4.93627 41.8728 4.32685 40.15 3.60473 39.3953C2.91338 38.6726 1.08707 38.0489 0.1375 37.6975C-0.0458337 37.6297 -0.0458332 37.3703 0.137501 37.3025C1.09843 36.9469 2.89557 36.3277 3.60473 35.6048C4.3274 34.8682 4.94049 33.1158 5.30251 32.1375Z" fill="black"/>
</svg>
