<svg width="449" height="355" viewBox="0 0 449 355" fill="none" xmlns="http://www.w3.org/2000/svg">
<path d="M331.55 16.6913C296.911 5.82415 254.237 12.7191 219.393 18.4556C188.862 23.482 160.646 32.1877 131.432 42.147C116.469 47.248 109.157 53.928 96.6511 61.9319C37.7561 99.6247 13.7755 181.148 4.66013 244.955C0.14067 276.591 3.64569 312.186 30.3679 334.05C61.5715 359.58 148.576 352.461 181.842 339.721C232.618 320.275 297.137 286.941 343.017 258.017C394.705 225.431 445.703 159.821 445.703 96.7133C445.703 67.7286 444.138 48.0956 418 30C354.43 -14.0098 250 0.99987 189.5 42.1476" stroke="#F5F059" stroke-width="6" stroke-linecap="round"/>
</svg>
