<svg width="132" height="124" viewBox="0 0 132 124" fill="none" xmlns="http://www.w3.org/2000/svg">
<path d="M18.5074 75.7713L32.4348 90.3633C32.4348 90.3633 42.1608 111.911 53.2539 108.727C64.4996 105.499 70.8042 100.406 75.551 90.442C78.384 84.4953 81.0959 82.1878 84.9824 77.1457C89.8855 70.7848 94.405 68.7049 98.3378 61.5071C105.196 45.3958 101.749 36.1714 100.316 32.3374L100.273 32.2209C98.8685 28.4592 76.4779 12.1288 76.4779 12.1288C76.4779 12.1288 46.0856 6.00913 30.2211 14.7071C14.3789 23.3929 5.56339 37.8433 3.1853 52.2489C0.807202 66.6545 18.5074 75.7713 18.5074 75.7713Z" fill="#F5F059"/>
<path d="M24.4502 45.0804L47.0319 1L78.7331 44.2161L110 87C110 87 75.2637 85.7035 53.9801 85.7035C32.6965 85.7035 1 87 1 87L24.4502 45.0804Z" stroke="black"/>
<path d="M54 45.7965C54 45.7965 63.8167 40.9302 70.1355 47.2157C76.455 53.5012 79.6718 60.9883 80.2958 61.7155L80.5676 61.4107L85.8469 67.5714L85.5798 67.8818C85.5798 67.8818 94.2758 76.0553 98.2002 80.636C102.124 85.2167 132.843 122.969 131.982 123.971L131.971 123.987C131.311 124.753 97.363 90.6102 93.4378 86.0311C89.5135 81.4504 82.4075 71.5825 82.4075 71.5825L82.142 71.8945L76.8627 65.7346L77.1227 65.4178C76.4995 64.6907 69.9301 67.7034 64.6992 53.562C61.1927 44.0798 54 45.7965 54 45.7965Z" fill="black"/>
<path d="M14.3025 19.1375C14.3703 18.9542 14.6297 18.9542 14.6975 19.1375C15.058 20.1117 15.6724 21.8747 16.3951 22.6048C17.1108 23.3277 18.8975 23.9454 19.8625 24.3025C20.0458 24.3703 20.0458 24.6297 19.8625 24.6975C18.9081 25.0506 17.094 25.6725 16.3951 26.3953C15.6728 27.1423 15.0619 28.8776 14.6975 29.8625C14.6297 30.0458 14.3703 30.0458 14.3025 29.8625C13.9363 28.8728 13.3268 27.15 12.6047 26.3953C11.9134 25.6726 10.0871 25.0489 9.1375 24.6975C8.95417 24.6297 8.95417 24.3703 9.1375 24.3025C10.0984 23.9469 11.8956 23.3277 12.6047 22.6048C13.3274 21.8682 13.9405 20.1158 14.3025 19.1375Z" fill="black"/>
</svg>
