<svg width="130" height="122" viewBox="0 0 130 122" fill="none" xmlns="http://www.w3.org/2000/svg">
<path d="M36 31.0019C36 31.0019 33.2901 37.501 29.4988 39.501C19.8521 44.59 6.54127 52.5513 8.18366 63.625C10.4743 79.0698 55.1476 101.002 55.1476 101.002C55.1476 101.002 77.8539 100.897 86.5 98.502C92.6541 96.7973 101.68 88.1952 104.191 71.9868C106.702 55.7783 96.9976 25.5468 96.9976 25.5468C96.9976 25.5468 69.3088 7.66531 55.1476 7.46036C33.3152 7.1444 36 31.0019 36 31.0019Z" fill="#707DEC"/>
<path d="M28.043 21.4141H97.925L97.9468 21.9092C97.9745 22.5384 98.0146 23.453 98.064 24.5946C98.1629 26.8777 98.2995 30.0686 98.4502 33.6998C98.7517 40.9626 99.1095 49.985 99.3352 57.0272C99.55 63.7294 99.7288 72.2996 99.854 79.1958C99.9166 82.6436 99.9658 85.6723 99.9993 87.8391C100.016 88.9225 100.029 89.7903 100.038 90.3873L100.044 90.8085L28.043 91.5205V21.4141Z" stroke="black"/>
<path d="M26.0622 37.935L44.723 1L70.9199 37.2108L96.758 73.0595C96.758 73.0595 68.0529 71.9732 50.4648 71.9732C32.8767 71.9732 6.68359 73.0595 6.68359 73.0595L26.0622 37.935Z" stroke="black"/>
<path d="M38.9961 33.0436C38.9961 33.0436 50.4489 27.5081 57.8208 34.6579C65.1936 41.8076 68.9465 50.3242 69.6745 51.1514L69.9916 50.8047L76.1508 57.8125L75.8392 58.1655C75.8392 58.1655 85.9845 67.4629 90.5629 72.6735C95.1404 77.884 130.979 120.827 129.975 121.966L129.962 121.986C129.193 122.856 89.5862 84.0192 85.0069 78.8104C80.4285 73.5998 72.1382 62.3751 72.1382 62.3751L71.8284 62.73L65.6692 55.7231L65.9726 55.3628C65.2456 54.5356 57.5812 57.9626 51.4785 41.8768C47.3875 31.0907 38.9961 33.0436 38.9961 33.0436Z" fill="black"/>
<path d="M9.2986 29.1375C9.36644 28.9542 9.62575 28.9542 9.69359 29.1375C10.0541 30.1117 10.6685 31.8747 11.3912 32.6048C12.1068 33.3277 13.8936 33.9454 14.8586 34.3025C15.0419 34.3703 15.0419 34.6297 14.8586 34.6975C13.9042 35.0506 12.0901 35.6725 11.3912 36.3953C10.6688 37.1423 10.058 38.8776 9.69359 39.8625C9.62575 40.0458 9.36644 40.0458 9.2986 39.8625C8.93236 38.8728 8.32294 37.15 7.60082 36.3953C6.90948 35.6726 5.08316 35.0489 4.13359 34.6975C3.95026 34.6297 3.95026 34.3703 4.13359 34.3025C5.09452 33.9469 6.89166 33.3277 7.60082 32.6048C8.32349 31.8682 8.93658 30.1158 9.2986 29.1375Z" fill="black"/>
<path d="M39.2986 57.1375C39.3664 56.9542 39.6257 56.9542 39.6936 57.1375C40.0541 58.1117 40.6685 59.8747 41.3912 60.6048C42.1068 61.3277 43.8936 61.9454 44.8586 62.3025C45.0419 62.3703 45.0419 62.6297 44.8586 62.6975C43.9042 63.0506 42.0901 63.6725 41.3912 64.3953C40.6688 65.1423 40.058 66.8776 39.6936 67.8625C39.6257 68.0458 39.3664 68.0458 39.2986 67.8625C38.9324 66.8728 38.3229 65.15 37.6008 64.3953C36.9095 63.6726 35.0832 63.0489 34.1336 62.6975C33.9503 62.6297 33.9503 62.3703 34.1336 62.3025C35.0945 61.9469 36.8917 61.3277 37.6008 60.6048C38.3235 59.8682 38.9366 58.1158 39.2986 57.1375Z" fill="black"/>
</svg>
