<svg width="694" height="84" viewBox="0 0 694 84" fill="none" xmlns="http://www.w3.org/2000/svg">
<path d="M642.491 44.338C593.4 28.6034 543.506 20.3953 492.487 13.3768C446.449 7.0436 400.638 6.30963 354.238 5.26399C287.525 3.76061 220.659 2.84533 153.984 5.51234C130.085 6.46828 106.317 7.03945 82.5413 10.0655C62.1261 12.6638 36.6548 11.0734 18.4666 21.9863C9.93976 27.1024 3.23438 37.2654 3.23438 47.3182C3.23438 65.2076 36.2746 69.7755 47.5237 72.5673C100.871 85.8067 155.495 80.1204 209.78 76.2925C269.956 72.0493 330.967 66.6896 391.325 66.6896C442.077 66.6896 491.633 65.446 541.33 52.8647C572.855 44.8836 604.295 37.1682 635.62 28.8574C653.913 24.0043 674.792 18.6226 690.175 7.08524" stroke="#F5F059" stroke-width="6" stroke-linecap="round"/>
</svg>
