<svg width="1019" height="50" viewBox="0 0 1019 50" fill="none" xmlns="http://www.w3.org/2000/svg">
<path d="M0 46.4172C17.9773 26.3853 44.7047 24.9504 68.7388 17.2501C84.0429 12.3469 103.595 8.41668 119.568 12.6448C133.143 16.2382 146.493 21.1774 160.163 24.9257C186.722 32.208 195.641 43.9453 223 45.2481C249.49 46.5095 270.951 37.4512 295 24.9257C305.065 19.6837 331.945 11.8216 342.841 8.38062C382.632 -4.1849 415.089 26.1205 452.397 35.5211C486.599 44.1388 481.43 42.5716 516 31.7686C537.894 24.9269 566.114 8.35364 589 4.62804C616.058 0.223295 634.941 21.4552 660 29.9366C695.065 41.8048 712.763 55.9064 750.5 37.0378C764.527 30.0243 827 3 860.5 3C886 3 929 33.6886 929 33.6886C957.217 39.6739 987.532 35.6297 1016 29.9361" stroke="#F5F059" stroke-width="6" stroke-linecap="round"/>
</svg>
