<svg width="26" height="26" viewBox="0 0 26 26" fill="none" xmlns="http://www.w3.org/2000/svg">
<path d="M21.5746 14.115C21.1542 13.5841 21.2745 13.348 21.5746 12.8735C21.58 12.8681 25.0499 8.07322 25.4074 6.44714L25.4096 6.44605C25.5872 5.85347 25.4096 5.41797 24.5505 5.41797H21.7078C20.9842 5.41797 20.6505 5.79172 20.4717 6.20989C20.4717 6.20989 19.0244 9.67439 16.9769 11.9201C16.3161 12.5691 16.0106 12.7771 15.6498 12.7771C15.4722 12.7771 15.1959 12.5691 15.1959 11.9765V6.44605C15.1959 5.73539 14.9933 5.41797 14.3942 5.41797H9.92442C9.4705 5.41797 9.20075 5.74947 9.20075 6.05822C9.20075 6.73205 10.2245 6.88697 10.3307 8.7828V12.8962C10.3307 13.7976 10.1671 13.9633 9.80417 13.9633C8.83783 13.9633 6.49242 10.4847 5.1025 6.50347C4.82192 5.73105 4.54783 5.41905 3.81875 5.41905H0.975C0.163583 5.41905 0 5.7928 0 6.21097C0 6.9498 0.966333 10.6234 4.49367 15.4767C6.8445 18.7896 10.1552 20.5846 13.1668 20.5846C14.9771 20.5846 15.1981 20.186 15.1981 19.5002C15.1981 16.3347 15.0345 16.0357 15.9412 16.0357C16.3616 16.0357 17.0852 16.2437 18.7752 17.8416C20.7068 19.7364 21.0242 20.5846 22.1054 20.5846H24.9481C25.7584 20.5846 26.169 20.186 25.9328 19.3995C25.3922 17.7452 21.7393 14.3425 21.5746 14.115Z" fill="white"/>
</svg>
