<svg width="26" height="18" viewBox="0 0 26 18" fill="none" xmlns="http://www.w3.org/2000/svg">
<path d="M24.3236 1.65263C23.6346 0.449015 22.8868 0.227626 21.3642 0.143436C19.8431 0.0420952 16.0184 0 12.7048 0C9.38493 0 5.55856 0.0420953 4.03912 0.141877C2.51969 0.227626 1.77029 0.447456 1.07488 1.65263C0.365172 2.85468 0 4.92514 0 8.57027C0 8.57339 0 8.57495 0 8.57495C0 8.57807 0 8.57963 0 8.57963V8.58275C0 12.2123 0.365172 14.2983 1.07488 15.4879C1.77029 16.6915 2.5181 16.9098 4.03754 17.0111C5.55856 17.0985 9.38493 17.1499 12.7048 17.1499C16.0184 17.1499 19.8431 17.0985 21.3658 17.0127C22.8884 16.9114 23.6362 16.6931 24.3252 15.4895C25.0413 14.2999 25.4033 12.2138 25.4033 8.5843C25.4033 8.5843 25.4033 8.57963 25.4033 8.57651C25.4033 8.57651 25.4033 8.57339 25.4033 8.57183C25.4033 4.92514 25.0413 2.85468 24.3236 1.65263Z" fill="white"/>
<path d="M9.52344 13.2529V3.89844L17.462 8.57569L9.52344 13.2529Z" fill="#707DEC"/>
</svg>
